HIERARCHY
ROOT Hips
{
  OFFSET 126.96 91.9987 35.2002
  CHANNELS 6 Xposition Yposition Zposition Zrotation Xrotation Yrotation
  JOINT RightUpLeg
  {
    OFFSET -9.21262 -1.62705 0.0892923
    CHANNELS 3 Zrotation Xrotation Yrotation
    JOINT RightLeg
    {
      OFFSET 0.0960154 -41.8606 0.153467
      CHANNELS 3 Zrotation Xrotation Yrotation
      JOINT RightFoot
      {
        OFFSET 1.33859 -39.7491 3.70458
        CHANNELS 3 Zrotation Xrotation Yrotation
        End Site
        {
          OFFSET 0 -7.69 17.5
        }
      }
    }
  }
  JOINT LeftUpLeg
  {
    OFFSET 9.28909 -1.62806 0.0108209
    CHANNELS 3 Zrotation Xrotation Yrotation
    JOINT LeftLeg
    {
      OFFSET 0.0929201 -41.8886 0.0218006
      CHANNELS 3 Zrotation Xrotation Yrotation
      JOINT LeftFoot
      {
        OFFSET -1.57781 -41.3397 -3.31563
        CHANNELS 3 Zrotation Xrotation Yrotation
        End Site
        {
          OFFSET 0 -7.69 17.5
        }
      }
    }
  }
  JOINT Spine
  {
    OFFSET 0.0128959 14.3037 0.0259321
    CHANNELS 3 Zrotation Xrotation Yrotation
    JOINT Spine1
    {
      OFFSET 0.0143034 9.71252 0.015398
      CHANNELS 3 Zrotation Xrotation Yrotation
      JOINT Spine2
      {
        OFFSET 0.0468817 10.117 -0.0314137
        CHANNELS 3 Zrotation Xrotation Yrotation
        JOINT Spine3
        {
          OFFSET 0.0102655 9.71178 0.00221616
          CHANNELS 3 Zrotation Xrotation Yrotation
          JOINT Neck
          {
            OFFSET -0.0402596 10.3794 0.0231037
            CHANNELS 3 Zrotation Xrotation Yrotation
            JOINT Head
            {
              OFFSET -0.03453 9.49168 0.0708427
              CHANNELS 3 Zrotation Xrotation Yrotation
              End Site
              {
                OFFSET 0 15.95 0
              }
            }
          }
          JOINT RightShoulder
          {
            OFFSET -3.17991 6.93495 0.0309862
            CHANNELS 3 Zrotation Xrotation Yrotation
            JOINT RightArm
            {
              OFFSET -12.8253 0.0342167 0.035901
              CHANNELS 3 Zrotation Xrotation Yrotation
              JOINT RightForeArm
              {
                OFFSET -26.4423 -0.000685918 0.00421057
                CHANNELS 3 Zrotation Xrotation Yrotation
                JOINT RightHand
                {
                  OFFSET -25.9842 -0.0662606 -0.0268032
                  CHANNELS 3 Zrotation Xrotation Yrotation
                  JOINT RightHandThumb1
                  {
                    OFFSET -2.48905 0.190105 3.12053
                    CHANNELS 3 Zrotation Xrotation Yrotation
                    JOINT RightHandThumb2
                    {
                      OFFSET -3.68274 0 0
                      CHANNELS 3 Zrotation Xrotation Yrotation
                      JOINT RightHandThumb3
                      {
                        OFFSET -2.55832 0 0
                        CHANNELS 3 Zrotation Xrotation Yrotation
                        End Site
                        {
                          OFFSET -2.194 0 0
                        }
                      }
                    }
                  }
                  JOINT RightInHandIndex
                  {
                    OFFSET -3.22368 0.508421 1.97842
                    CHANNELS 3 Zrotation Xrotation Yrotation
                    JOINT RightHandIndex1
                    {
                      OFFSET -5.21684 -0.091368 0.999158
                      CHANNELS 3 Zrotation Xrotation Yrotation
                      JOINT RightHandIndex2
                      {
                        OFFSET -3.61937 0 0
                        CHANNELS 3 Zrotation Xrotation Yrotation
                        JOINT RightHandIndex3
                        {
                          OFFSET -2.0521 0 0
                          CHANNELS 3 Zrotation Xrotation Yrotation
                          End Site
                          {
                            OFFSET -1.805 0 0
                          }
                        }
                      }
                    }
                  }
                  JOINT RightInHandMiddle
                  {
                    OFFSET -3.38211 0.517263 0.756737
                    CHANNELS 3 Zrotation Xrotation Yrotation
                    JOINT RightHandMiddle1
                    {
                      OFFSET -5.17411 -0.084 0.313895
                      CHANNELS 3 Zrotation Xrotation Yrotation
                      JOINT RightHandMiddle2
                      {
                        OFFSET -3.94947 0 0
                        CHANNELS 3 Zrotation Xrotation Yrotation
                        JOINT RightHandMiddle3
                        {
                          OFFSET -2.47579 0 0
                          CHANNELS 3 Zrotation Xrotation Yrotation
                          End Site
                          {
                            OFFSET -1.975 0 0
                          }
                        }
                      }
                    }
                  }
                  JOINT RightInHandRing
                  {
                    OFFSET -3.36516 0.537895 -0.128947
                    CHANNELS 3 Zrotation Xrotation Yrotation
                    JOINT RightHandRing1
                    {
                      OFFSET -4.63474 -0.022105 -0.478947
                      CHANNELS 3 Zrotation Xrotation Yrotation
                      JOINT RightHandRing2
                      {
                        OFFSET -3.44238 0 0
                        CHANNELS 3 Zrotation Xrotation Yrotation
                        JOINT RightHandRing3
                        {
                          OFFSET -2.3881 0 0
                          CHANNELS 3 Zrotation Xrotation Yrotation
                          End Site
                          {
                            OFFSET -1.857 0 0
                          }
                        }
                      }
                    }
                  }
                  JOINT RightInHandPinky
                  {
                    OFFSET -3.16105 0.469368 -1.20179
                    CHANNELS 3 Zrotation Xrotation Yrotation
                    JOINT RightHandPinky1
                    {
                      OFFSET -4.14105 -0.022105 -1.09053
                      CHANNELS 3 Zrotation Xrotation Yrotation
                      JOINT RightHandPinky2
                      {
                        OFFSET -2.75653 0 0
                        CHANNELS 3 Zrotation Xrotation Yrotation
                        JOINT RightHandPinky3
                        {
                          OFFSET -1.74189 0 0
                          CHANNELS 3 Zrotation Xrotation Yrotation
                          End Site
                          {
                            OFFSET -1.645 0 0
                          }
                        }
                      }
                    }
                  }
                }
              }
            }
          }
          JOINT LeftShoulder
          {
            OFFSET 3.21113 6.90952 -0.0469957
            CHANNELS 3 Zrotation Xrotation Yrotation
            JOINT LeftArm
            {
              OFFSET 12.7919 -0.0331125 -0.0859637
              CHANNELS 3 Zrotation Xrotation Yrotation
              JOINT LeftForeArm
              {
                OFFSET 26.4755 -0.0026531 -0.0242133
                CHANNELS 3 Zrotation Xrotation Yrotation
                JOINT LeftHand
                {
                  OFFSET 25.9936 -0.03295 -0.105102
                  CHANNELS 3 Zrotation Xrotation Yrotation
                  JOINT LeftHandThumb1
                  {
                    OFFSET 2.48905 0.190105 3.12053
                    CHANNELS 3 Zrotation Xrotation Yrotation
                    JOINT LeftHandThumb2
                    {
                      OFFSET 3.68274 0 0
                      CHANNELS 3 Zrotation Xrotation Yrotation
                      JOINT LeftHandThumb3
                      {
                        OFFSET 2.55832 0 0
                        CHANNELS 3 Zrotation Xrotation Yrotation
                        End Site
                        {
                          OFFSET 2.194 0 0
                        }
                      }
                    }
                  }
                  JOINT LeftInHandIndex
                  {
                    OFFSET 3.22368 0.508421 1.97842
                    CHANNELS 3 Zrotation Xrotation Yrotation
                    JOINT LeftHandIndex1
                    {
                      OFFSET 5.21684 -0.091368 0.999158
                      CHANNELS 3 Zrotation Xrotation Yrotation
                      JOINT LeftHandIndex2
                      {
                        OFFSET 3.61937 0 0
                        CHANNELS 3 Zrotation Xrotation Yrotation
                        JOINT LeftHandIndex3
                        {
                          OFFSET 2.0521 0 0
                          CHANNELS 3 Zrotation Xrotation Yrotation
                          End Site
                          {
                            OFFSET 1.805 0 0
                          }
                        }
                      }
                    }
                  }
                  JOINT LeftInHandMiddle
                  {
                    OFFSET 3.38211 0.517263 0.756737
                    CHANNELS 3 Zrotation Xrotation Yrotation
                    JOINT LeftHandMiddle1
                    {
                      OFFSET 5.17411 -0.084 0.313895
                      CHANNELS 3 Zrotation Xrotation Yrotation
                      JOINT LeftHandMiddle2
                      {
                        OFFSET 3.94947 0 0
                        CHANNELS 3 Zrotation Xrotation Yrotation
                        JOINT LeftHandMiddle3
                        {
                          OFFSET 2.47579 0 0
                          CHANNELS 3 Zrotation Xrotation Yrotation
                          End Site
                          {
                            OFFSET 1.975 0 0
                          }
                        }
                      }
                    }
                  }
                  JOINT LeftInHandRing
                  {
                    OFFSET 3.36516 0.537895 -0.128947
                    CHANNELS 3 Zrotation Xrotation Yrotation
                    JOINT LeftHandRing1
                    {
                      OFFSET 4.63474 -0.022105 -0.478947
                      CHANNELS 3 Zrotation Xrotation Yrotation
                      JOINT LeftHandRing2
                      {
                        OFFSET 3.44238 0 0
                        CHANNELS 3 Zrotation Xrotation Yrotation
                        JOINT LeftHandRing3
                        {
                          OFFSET 2.3881 0 0
                          CHANNELS 3 Zrotation Xrotation Yrotation
                          End Site
                          {
                            OFFSET 1.857 0 0
                          }
                        }
                      }
                    }
                  }
                  JOINT LeftInHandPinky
                  {
                    OFFSET 3.16105 0.469368 -1.20179
                    CHANNELS 3 Zrotation Xrotation Yrotation
                    JOINT LeftHandPinky1
                    {
                      OFFSET 4.14105 -0.022105 -1.09053
                      CHANNELS 3 Zrotation Xrotation Yrotation
                      JOINT LeftHandPinky2
                      {
                        OFFSET 2.75653 0 0
                        CHANNELS 3 Zrotation Xrotation Yrotation
                        JOINT LeftHandPinky3
                        {
                          OFFSET 1.74189 0 0
                          CHANNELS 3 Zrotation Xrotation Yrotation
                          End Site
                          {
                            OFFSET 1.645 0 0
                          }
                        }
                      }
                    }
                  }
                }
              }
            }
          }
        }
      }
    }
  }
}
MOTION
Frames: 3
Frame Time: 0.00833333
2.394588000000000193e+03 8.828749999999999432e+01 1.932650000000000290e+01 1.124090000000000167e+01 -2.145390000000000086e+01 1.729279999999999973e+02 3.915849999999999653e+01 -3.713329999999999131e+01 5.697409999999999286e+01 -7.646270000000001232e+00 2.416919999999999646e+01 2.234750000000000369e+01 8.259249999999997982e+00 3.249750000000000583e+00 1.403389999999999915e+01 3.259749999999999659e+01 -1.422289999999999921e+01 4.518379999999999797e+01 -3.211080000000000378e+00 3.674099999999999255e+01 2.402540000000000475e+01 -2.123389999999999844e+01 -1.430889999999999773e+01 1.047819999999999929e+01 -1.082820000000000249e+01 -1.071060000000000123e+00 -1.429649999999999821e+01 -2.694180000000000241e+00 -9.595319999999998295e-01 -3.493430000000000035e+00 -4.447710000000000719e+00 -1.852899999999999991e+00 -5.553020000000000067e+00 -8.544620000000000548e-01 -4.703710000000000391e-01 2.801689999999999348e+00 -4.920130000000000337e+00 -3.191730000000000622e+00 4.529160000000000252e+01 -1.431430000000000113e+01 6.261359999999999815e+00 2.831159999999999854e+01 1.738450000000000273e+00 -6.381059999999999732e+00 -5.583999999999999631e+00 5.477340000000000941e+01 7.573080000000000034e+00 -4.149399999999999977e+01 4.894869999999999521e+01 -5.684199999999998809e+00 -1.722820000000000391e+02 -1.445499999999999474e+01 3.216110000000000468e+00 1.154969999999999608e+00 2.818400000000000105e+01 1.072940000000000005e+01 1.915919999999999845e+01 4.351259999999998844e-15 6.361110000000000530e-15 -1.000000000000000000e+01 -3.510029999999999964e-15 -1.590279999999999485e-15 -1.000000000000000000e+01 0.000000000000000000e+00 0.000000000000000000e+00 -7.951390000000007115e-16 1.998179999999999978e+01 8.718970000000000331e-01 2.396399999999999864e+00 2.400000000000000000e+01 -3.180550000000000771e-15 -3.180549999999999587e-15 2.000000000000000000e+01 3.975690000000000513e-16 -3.180549999999997615e-15 0.000000000000000000e+00 0.000000000000000000e+00 -7.951390000000007115e-16 2.000000000000000000e+01 -1.590279999999999485e-15 -4.770829999999999467e-15 2.400000000000000000e+01 -3.180549999999999982e-15 0.000000000000000000e+00 2.000000000000000000e+01 -5.565970000000000787e-15 -6.361109999999999741e-15 0.000000000000000000e+00 0.000000000000000000e+00 -7.951390000000007115e-16 1.997479999999999833e+01 -1.025649999999999951e+00 -2.819380000000000219e+00 2.400000000000000000e+01 1.590280000000000471e-15 0.000000000000000000e+00 2.000000000000000000e+01 -1.590280000000000471e-15 9.541660000000000512e-15 0.000000000000000000e+00 0.000000000000000000e+00 -7.951390000000007115e-16 1.978150000000000119e+01 -3.009479999999999933e+00 -8.305149999999999366e+00 2.400000000000000000e+01 0.000000000000000000e+00 6.361109999999997375e-15 2.000000000000000000e+01 2.385420000000000017e-15 3.180550000000000771e-15 3.743540000000000312e+00 -2.101869999999999905e+01 -1.738030000000000186e+01 1.513289999999999758e+01 2.367400000000000659e+01 -1.399549999999999841e+02 4.417289999999999139e+01 2.257909999999998973e+00 -1.200760000000000360e+01 -5.284899999999998954e+01 -6.379050000000000864e+01 -7.174410000000000309e+01 -2.818400000000000105e+01 1.072940000000000005e+01 -1.915919999999999845e+01 3.019309999999999752e-15 1.192709999999999417e-15 1.000000000000000000e+01 -4.206129999999999974e-16 2.385420000000000017e-15 1.000000000000000000e+01 6.361109999999998952e-15 0.000000000000000000e+00 3.975689999999999527e-16 -1.998179999999999978e+01 8.718970000000000331e-01 -2.396399999999999864e+00 -2.400000000000000000e+01 5.963540000000003814e-16 1.113189999999999773e-14 -2.000000000000000000e+01 -3.590549999999999939e-15 7.951389999999999226e-15 6.361109999999998952e-15 0.000000000000000000e+00 3.975689999999999527e-16 -2.000000000000000000e+01 -1.590279999999999880e-15 2.385420000000000017e-15 -2.400000000000000000e+01 -9.939230000000004328e-16 2.385420000000000805e-15 -2.000000000000000000e+01 -2.062389999999999972e-15 2.226389999999999639e-14 6.361109999999998952e-15 0.000000000000000000e+00 3.975689999999999527e-16 -1.997479999999999833e+01 -1.025649999999999951e+00 2.819380000000000219e+00 -2.400000000000000000e+01 -4.770830000000000256e-15 8.746529999999997391e-15 -2.000000000000000000e+01 -3.503579999999998843e-15 1.272219999999999835e-14 6.361109999999998952e-15 0.000000000000000000e+00 3.975689999999999527e-16 -1.978150000000000119e+01 -3.009479999999999933e+00 8.305149999999999366e+00 -2.400000000000000000e+01 -2.782990000000000677e-15 7.951389999999999226e-15 -2.000000000000000000e+01 -6.777309999999998892e-15 1.113189999999999931e-14
2.394526000000000295e+03 8.828820000000000334e+01 1.941790000000000305e+01 1.131299999999999883e+01 -2.147839999999999705e+01 1.730120000000000289e+02 3.920170000000000243e+01 -3.718249999999999034e+01 5.693039999999999168e+01 -7.715499999999998693e+00 2.417029999999999745e+01 2.238329999999999842e+01 8.295759999999999579e+00 3.276880000000000237e+00 1.402379999999999782e+01 3.266689999999999117e+01 -1.438220000000000098e+01 4.520150000000000290e+01 -3.164139999999999731e+00 3.685950000000000415e+01 2.401350000000000051e+01 -2.121080000000000254e+01 -1.433440000000000047e+01 1.044510000000000183e+01 -1.079879999999999995e+01 -1.034320000000001016e+00 -1.423339999999999961e+01 -2.687510000000000510e+00 -9.452740000000001697e-01 -3.479890000000000150e+00 -4.436659999999999826e+00 -1.827740000000000364e+00 -5.533839999999999648e+00 -8.533079999999999554e-01 -4.665199999999999902e-01 2.800310000000000077e+00 -4.914130000000000109e+00 -3.171210000000000306e+00 4.520229999999999393e+01 -1.429429999999999978e+01 6.282820000000000071e+00 2.826510000000000389e+01 1.737649999999999917e+00 -6.388580000000000148e+00 -5.548089999999999300e+00 5.511580000000000723e+01 7.520400000000000418e+00 -4.137169999999999703e+01 4.882750000000000057e+01 -5.813220000000001164e+00 -1.724750000000000227e+02 -1.453420000000000201e+01 3.116109999999997271e+00 1.121310000000001139e+00 2.818400000000000105e+01 1.072940000000000005e+01 1.915919999999999845e+01 5.898419999999999317e-15 -3.180549999999999982e-15 -1.000000000000000000e+01 -7.020060000000001505e-15 -3.180549999999999982e-15 -1.000000000000000000e+01 0.000000000000000000e+00 -6.361109999999998952e-15 2.385420000000000411e-15 1.998179999999999978e+01 8.718970000000000331e-01 2.396399999999999864e+00 2.400000000000000000e+01 -6.361109999999998952e-15 -1.272219999999999835e-14 2.000000000000000000e+01 -3.180549999999999982e-15 -1.272220000000000308e-14 0.000000000000000000e+00 -6.361109999999998952e-15 2.385420000000000411e-15 2.000000000000000000e+01 1.590280000000000077e-15 -7.951390000000000804e-15 2.400000000000000000e+01 -3.180549999999999982e-15 -9.541660000000002090e-15 2.000000000000000000e+01 -3.975690000000000513e-16 -1.908329999999999831e-14 0.000000000000000000e+00 -6.361109999999998952e-15 2.385420000000000411e-15 1.997479999999999833e+01 -1.025649999999999951e+00 -2.819380000000000219e+00 2.400000000000000000e+01 -3.180549999999999982e-15 -9.541660000000000512e-15 2.000000000000000000e+01 -2.385420000000000805e-15 -9.541660000000000512e-15 0.000000000000000000e+00 -6.361109999999998952e-15 2.385420000000000411e-15 1.978150000000000119e+01 -3.009479999999999933e+00 -8.305149999999999366e+00 2.400000000000000000e+01 -8.746530000000000547e-15 -9.541660000000000512e-15 2.000000000000000000e+01 5.963539999999988037e-16 -1.272220000000000308e-14 3.743360000000000021e+00 -2.098799999999999599e+01 -1.735470000000000113e+01 1.515990000000000038e+01 2.372520000000000095e+01 -1.399769999999999754e+02 4.414390000000000214e+01 2.194750000000002643e+00 -1.181719999999999970e+01 -5.312709999999999155e+01 -6.345760000000000645e+01 -7.170550000000000068e+01 -2.818400000000000105e+01 1.072940000000000005e+01 -1.915919999999999845e+01 -2.738900000000000388e-15 -2.782990000000000282e-15 1.000000000000000000e+01 7.300470000000000080e-15 -4.770830000000000256e-15 1.000000000000000000e+01 3.180549999999999982e-15 3.180549999999999982e-15 -2.782989999999999493e-15 -1.998179999999999978e+01 8.718970000000000331e-01 -2.396399999999999864e+00 -2.400000000000000000e+01 1.590279999999999880e-15 7.156250000000001061e-15 -2.000000000000000000e+01 -4.907500000000005295e-16 1.431250000000000212e-14 3.180549999999999982e-15 3.180549999999999982e-15 -2.782989999999999493e-15 -2.000000000000000000e+01 3.180549999999999982e-15 2.385420000000000411e-15 -2.400000000000000000e+01 -7.951390000000000804e-15 1.987850000000000145e-14 -2.000000000000000000e+01 -1.341799999999999834e-15 8.746529999999997391e-15 3.180549999999999982e-15 3.180549999999999982e-15 -2.782989999999999493e-15 -1.997479999999999833e+01 -1.025649999999999951e+00 2.819380000000000219e+00 -2.400000000000000000e+01 7.951390000000003171e-16 1.113189999999999931e-14 -2.000000000000000000e+01 -1.236190000000000076e-15 1.908330000000000462e-14 3.180549999999999982e-15 3.180549999999999982e-15 -2.782989999999999493e-15 -1.978150000000000119e+01 -3.009479999999999933e+00 8.305149999999999366e+00 -2.400000000000000000e+01 -2.782989999999999099e-15 7.951389999999999226e-15 -2.000000000000000000e+01 -9.268339999999998666e-15 2.703470000000000205e-14
2.394470000000000255e+03 8.829000000000000625e+01 1.950750000000000384e+01 1.139349999999999774e+01 -2.149830000000000396e+01 1.731239999999999668e+02 3.923490000000000322e+01 -3.724310000000000542e+01 5.685840000000000316e+01 -7.803720000000000212e+00 2.417190000000000438e+01 2.241719999999999757e+01 8.345069999999999766e+00 3.295630000000000948e+00 1.402490000000000059e+01 3.272449999999999903e+01 -1.452730000000000032e+01 4.528249999999999886e+01 -3.062570000000000014e+00 3.695239999999999725e+01 2.390979999999999706e+01 -2.118469999999999942e+01 -1.435040000000000049e+01 1.039470000000000205e+01 -1.077529999999999966e+01 -9.903720000000006962e-01 -1.416870000000000118e+01 -2.683670000000000222e+00 -9.294989999999998531e-01 -3.466250000000000497e+00 -4.430139999999999745e+00 -1.800199999999999800e+00 -5.514509999999999579e+00 -8.518999999999999906e-01 -4.664929999999999355e-01 2.798950000000000049e+00 -4.927800000000001290e+00 -3.166100000000000581e+00 4.507139999999999702e+01 -1.428440000000000154e+01 6.235420000000000407e+00 2.818419999999999703e+01 1.734049999999999869e+00 -6.389680000000001137e+00 -5.511779999999999013e+00 5.550609999999999644e+01 7.452639999999998821e+00 -4.122409999999999997e+01 4.869370000000000687e+01 -5.937280000000001223e+00 -1.727009999999999934e+02 -1.461049999999999827e+01 3.028510000000000701e+00 1.111199999999998411e+00 2.818400000000000105e+01 1.072940000000000005e+01 1.915919999999999845e+01 0.000000000000000000e+00 0.000000000000000000e+00 -1.000000000000000000e+01 -2.804090000000003327e-16 -1.590279999999999288e-15 -1.000000000000000000e+01 3.180550000000000771e-15 0.000000000000000000e+00 7.951389999999999226e-16 1.998179999999999978e+01 8.718970000000000331e-01 2.396399999999999864e+00 2.400000000000000000e+01 0.000000000000000000e+00 3.180549999999999587e-15 2.000000000000000000e+01 2.385420000000000017e-15 1.908330000000000147e-14 3.180550000000000771e-15 0.000000000000000000e+00 7.951389999999999226e-16 2.000000000000000000e+01 3.180550000000000376e-15 3.180549999999999982e-15 2.400000000000000000e+01 3.180549999999999982e-15 3.180550000000000771e-15 2.000000000000000000e+01 2.385420000000000411e-15 6.361110000000001319e-15 3.180550000000000771e-15 0.000000000000000000e+00 7.951389999999999226e-16 1.997479999999999833e+01 -1.025649999999999951e+00 -2.819380000000000219e+00 2.400000000000000000e+01 -1.590279999999999880e-15 1.272219999999999993e-14 2.000000000000000000e+01 6.758679999999999612e-15 1.272219999999999993e-14 3.180550000000000771e-15 0.000000000000000000e+00 7.951389999999999226e-16 1.978150000000000119e+01 -3.009479999999999933e+00 -8.305149999999999366e+00 2.400000000000000000e+01 6.361110000000002897e-15 4.770830000000000256e-15 2.000000000000000000e+01 1.590280000000000471e-15 1.590280000000000116e-14 3.752089999999999925e+00 -2.090859999999999985e+01 -1.735010000000000474e+01 1.519259999999999877e+01 2.374010000000000176e+01 -1.399819999999999993e+02 4.410940000000000794e+01 2.141930000000002110e+00 -1.159270000000000067e+01 -5.341120000000000090e+01 -6.310660000000000025e+01 -7.161549999999998306e+01 -2.818400000000000105e+01 1.072940000000000005e+01 -1.915919999999999845e+01 -3.299719999999998721e-15 3.975689999999996569e-16 1.000000000000000000e+01 3.580130000000000057e-15 -1.987850000000000145e-15 1.000000000000000000e+01 3.180549999999999982e-15 1.590279999999999485e-15 -3.975690000000000513e-16 -1.998179999999999978e+01 8.718970000000000331e-01 -2.396399999999999864e+00 -2.400000000000000000e+01 -2.385419999999999622e-15 7.951389999999991338e-16 -2.000000000000000000e+01 5.218099999999996971e-16 -4.770830000000000256e-15 3.180549999999999982e-15 1.590279999999999485e-15 -3.975690000000000513e-16 -2.000000000000000000e+01 1.590280000000000274e-15 -3.975689999999998936e-15 -2.400000000000000000e+01 -3.180549999999999193e-15 1.590280000000000274e-15 -2.000000000000000000e+01 -4.832949999999998986e-15 3.180549999999999193e-15 3.180549999999999982e-15 1.590279999999999485e-15 -3.975690000000000513e-16 -1.997479999999999833e+01 -1.025649999999999951e+00 2.819380000000000219e+00 -2.400000000000000000e+01 2.385420000000000017e-15 -7.951389999999999226e-16 -2.000000000000000000e+01 3.472520000000000662e-15 -7.156249999999997906e-15 3.180549999999999982e-15 1.590279999999999485e-15 -3.975690000000000513e-16 -1.978150000000000119e+01 -3.009479999999999933e+00 8.305149999999999366e+00 -2.400000000000000000e+01 0.000000000000000000e+00 -7.951389999999999226e-15 -2.000000000000000000e+01 1.416340000000000844e-15 -3.180549999999999193e-15
